<svg width="77" height="70" viewBox="0 0 77 70" fill="none" xmlns="http://www.w3.org/2000/svg">
<path d="M0.485759 44.0108C7.87818 41.9776 15.3907 40.3904 22.9048 38.8239C23.2636 38.7483 23.2636 38.8713 23.2636 39.1099C23.2636 40.2199 23.2779 41.3329 23.2636 42.4385C23.2431 44.7133 23.2541 46.9882 23.8279 49.2156C24.1077 50.3034 23.8042 50.127 25.056 50.1566C27.1298 50.2055 26.4944 49.8602 27.7509 51.4134C27.9323 51.5954 28.0436 51.8291 28.067 52.0773C28.1748 54.3874 28.5092 56.6833 29.066 58.9359C29.1418 59.2531 29.0581 59.3998 28.7941 59.5717C26.2146 61.2597 23.6445 62.961 21.0698 64.6534C20.2202 65.2211 19.6148 66.0547 19.3627 67.0039C19.1304 67.7775 19.3216 68.5436 19.388 69.3083C19.5255 69.3484 19.6267 69.2757 19.7326 69.2357C23.6171 67.7513 27.5963 66.4946 31.6471 65.473C31.8445 65.4192 32.0212 65.3132 32.156 65.1677C32.7061 64.6342 33.0554 63.9732 33.5011 63.3745C34.5785 61.9145 35.7649 60.5278 37.0511 59.2249C38.6428 57.6258 40.3545 56.169 42.4947 55.2235C43.8239 54.6307 45.2117 54.3344 46.6959 54.4588C48.444 54.607 49.9487 55.3021 51.3238 56.2758C53.1241 57.5503 54.5577 59.1493 55.8743 60.8521C55.9534 60.9559 55.9771 61.1722 56.2015 61.1189C56.426 61.0655 56.4813 60.8877 56.4908 60.6743C56.5113 60.2297 56.584 59.7851 56.6109 59.3494C56.7421 57.1798 56.6599 55.0264 55.9423 52.9383C55.2611 50.9525 54.0946 49.3178 51.9908 48.4286C49.993 47.5839 47.9271 47.6521 45.8898 48.2404C41.0026 49.6542 37.5127 52.6493 35.1007 56.8093C34.8019 57.322 34.5743 57.8719 34.3104 58.4039C34.0101 51.4578 35.0042 44.7118 37.6707 38.1822C39.3619 39.7294 41.3298 40.666 43.6279 40.9505C46.2454 41.2751 48.5831 40.6956 50.5288 38.9676C52.1236 37.5494 53.0325 35.7562 53.5319 33.7881C54.2258 31.0153 55.7005 28.7909 58.359 27.3207C58.4649 27.2614 58.6119 27.2244 58.6309 27.0614C58.4088 26.9275 58.1623 26.8331 57.9038 26.7828C56.4606 26.4358 54.9885 26.2048 53.5035 26.0922C50.9998 25.9069 48.5499 26.0922 46.1806 26.928C42.8313 28.1002 40.3814 30.2773 38.4578 33.0308C36.2624 36.1756 34.9458 39.6686 33.9342 43.2758C33.6955 44.1249 33.4853 44.9815 33.2624 45.8337C33.2135 45.7127 33.1924 45.5834 33.2008 45.4543C33.1755 41.4035 33.1507 37.3528 33.1265 33.302C33.1139 30.2091 33.1265 27.1162 33.1044 24.0233C33.1044 23.7269 33.1723 23.6291 33.4948 23.5787C34.3211 23.4393 35.1318 23.228 35.9162 22.9474C40.3545 21.3972 42.3429 18.0124 41.2729 13.6998C40.9441 12.3734 40.4035 11.0944 40.0084 9.78141C39.5342 8.22532 39.294 6.64256 39.6085 5.02275C39.7663 4.29983 39.9927 3.5916 40.285 2.90649C37.3799 2.98059 35.3852 4.36476 33.9816 6.71222C33.3367 4.55741 32.401 2.63529 31.2946 0.722046L31.0717 1.13551C30.3957 2.4245 29.8147 3.75549 29.3331 5.11909C28.7767 6.69444 28.2599 8.29498 28.1729 9.95629C27.9532 14.1666 27.8078 18.3814 27.6466 22.5947C27.6552 22.7208 27.6249 22.8465 27.5593 22.9569C27.4937 23.0673 27.3956 23.1576 27.2767 23.2171C19.0261 28.0652 10.7506 32.8742 2.45043 37.6442C1.90118 37.9464 1.41145 38.3349 1.00262 38.7928C0.454151 39.43 0.0700602 40.1265 0.0763825 40.9802C0.0763825 41.8812 0.0605813 42.7837 0.00209945 43.6818C-0.0184482 44.1012 0.109579 44.1131 0.485759 44.0108ZM31.2061 6.26317C31.2976 6.2188 31.403 6.20671 31.5033 6.22909C32.4785 6.48399 33.6797 8.21348 33.558 9.18121C32.0296 7.79556 30.8473 7.71998 29.2699 9.25976C29.1719 8.14235 30.125 6.67665 31.2061 6.26317Z" fill="#7FB61E"/>
<path d="M58.5298 35.9325C57.2274 36.8439 56.3422 38.0784 55.4365 39.3174C54.8043 40.174 54.9481 40.8853 55.495 41.6545C55.6604 41.9006 55.8545 42.1287 56.0735 42.3347C57.4249 43.541 59.0624 43.9204 60.8548 43.6551C62.8748 43.3587 64.321 42.3377 64.9643 40.4555C65.0955 40.0762 65.2251 39.6953 65.3421 39.3114C65.9174 37.4278 66.8373 35.7858 68.8968 34.9099C67.7575 34.5911 66.5837 34.3923 65.3974 34.3172C62.9254 34.1438 60.5814 34.5024 58.5298 35.9325Z" fill="#7FB61E"/>
<path d="M36.0981 28.5182C35.5828 30.5055 35.7424 32.5018 36.0712 34.6062C36.1897 34.3987 36.2466 34.3098 36.2988 34.209C38.9289 29.3674 42.7792 25.9692 48.6795 24.9822C48.9419 24.9377 48.9672 24.8607 48.8898 24.6369C48.2778 22.8463 47.3792 21.1534 46.2249 19.6159C45.7959 19.0294 45.3204 18.474 44.8024 17.9546C44.785 18.0405 44.7723 18.0776 44.7692 18.1147C44.5964 20.1213 43.618 21.6833 41.834 22.8007C41.05 23.2947 40.2598 23.7813 39.4631 24.2604C37.7782 25.2919 36.5786 26.6613 36.0981 28.5182Z" fill="#7FB61E"/>
<path d="M71.0796 40.1487C69.4026 40.6215 68.3563 41.7522 67.43 43.0682C66.9843 43.7025 67.1139 44.1886 67.5122 44.7177C67.6315 44.8764 67.7688 45.0225 67.9216 45.1534C69.5544 46.5598 72.9084 46.1167 73.569 43.7277C73.9531 42.3421 74.4289 40.9638 76.0759 40.3192C74.911 39.8375 72.3931 39.7767 71.0796 40.1487Z" fill="#7FB61E"/>
<path d="M56.396 33.1049C55.8987 33.4193 55.4726 33.8229 55.1425 34.2925C54.8123 34.762 54.5846 35.2882 54.4724 35.8407C54.3 36.7424 54.2765 37.6636 54.4029 38.572C54.4313 38.8239 54.3807 39.0996 54.5609 39.3545C54.8705 38.7837 55.2129 38.2291 55.5867 37.6932C57.112 35.5902 59.113 34.1067 61.7953 33.5184C62.6425 33.3317 62.6488 33.3406 62.3358 32.5744C61.796 31.2373 60.9916 30.008 59.9649 28.9509C59.8796 30.3336 59.2426 31.3117 58.1236 32.0231C57.5514 32.3876 56.965 32.7344 56.396 33.1049Z" fill="#7FB61E"/>
<path d="M67.5628 39.1306C66.4295 39.8983 66.1735 41.607 66.5955 42.9705C67.6798 40.9565 69.2825 39.5619 71.7245 39.1721C71.3768 38.0562 70.6355 36.8528 70.0143 36.4156C69.9653 37.5123 69.2335 38.1333 68.3247 38.6386C68.0591 38.7824 67.8094 38.9617 67.5628 39.1306Z" fill="#7FB61E"/>
<path d="M50.2648 24.5035C50.3249 24.7569 50.4229 24.8355 50.7026 24.8207C51.3507 24.7881 52.0019 24.7836 52.6499 24.8073C53.4687 24.837 53.4671 24.8533 53.4592 23.9003C53.4236 23.3293 53.339 22.7618 53.2063 22.2035C53.1494 21.953 53.0482 21.9338 52.8127 22.0004C51.8583 22.2761 50.9316 22.6302 50.0435 23.0586C49.8286 23.1579 49.8254 23.2527 49.906 23.4439C50.0559 23.7874 50.1759 24.1418 50.2648 24.5035Z" fill="#7FB61E"/>
<path d="M64.2958 33.2723H64.4286V33.2916C64.6491 33.279 64.8703 33.279 65.0908 33.2916C65.3374 33.3197 65.4401 33.2604 65.4354 33.0115C65.4216 32.57 65.3687 32.1303 65.2773 31.6969C65.2394 31.4998 65.1446 31.4776 64.977 31.5251C64.4009 31.6888 63.8426 31.9032 63.3095 32.1653C63.1925 32.2231 63.1404 32.266 63.1783 32.4157C63.3964 33.2708 63.3838 33.2723 64.2958 33.2723Z" fill="#7FB61E"/>
<path d="M73.2197 39.0966C73.3186 39.0898 73.418 39.0898 73.5169 39.0966C73.833 39.1485 73.9231 39.0358 73.901 38.7409C73.8204 37.6413 73.7982 37.8858 72.9526 38.1926C72.3852 38.3971 72.3931 38.4327 72.6112 38.9336C72.7519 39.2626 73.049 38.9929 73.2197 39.0966Z" fill="#7FB61E"/>
</svg>
